# xmcd
#
# Track frame offsets:
#	150
#	15397
#	31302
#	46579
#	62982
#	76224
#	90789
#	103483
#	118394
#	132923
#	147194
#	161273
#	175590
#	189985
#	204882
#	218973
#	232172
#	245462
#
# Disc length: 3473 seconds
#
# Revision: 0
# Processed by: cddbd v1.5.2PL0 Copyright (c) Steve Scherf et al.
# Submitted via: EasyCDDAExtractor 16.0.6.1
#
DISCID=ea0d8f12
DTITLE=Καζαντζίδης Στέλιος - Τα πρώτα μου τραγούδια 1960-1968-Στ. Καζαντζίδης
DYEAR=1996
DGENRE=Λαϊκή
TTITLE0=Γλυκειά φελάχα κλάψε
TTITLE1=Είναι ωραία η ζωή
TTITLE2=Μ' άναψες φωτιά
TTITLE3=Το τραγούδι της φτωχολογιάς
TTITLE4=Στα βράχια της Πειραϊκής
TTITLE5=Απάνω που σε ξέχασα
TTITLE6=Μη μού λέτε γι' αυτή
TTITLE7=Τα γλυκά που ψώνισα
TTITLE8=Θα κλάψεις μιά μέρα
TTITLE9=Ένα ρεμάλι του Πειραιά
TTITLE10=Ένα ποτήρι δάκρυα
TTITLE11=Τα ροζιασμένα χέρια μου
TTITLE12=Απόψε σ' έχω στην αγκαλιά μου
TTITLE13=Άσε με να ζήσω μοναχός
TTITLE14=Η πιο μεγάλη αμαρτία
TTITLE15=Αύριο σε χάνω
TTITLE16=Η καρδιά της μάννας
TTITLE17=Δεν άλλαξε η καρδιά μου
EXTD=
EXTT0=
EXTT1=
EXTT2=
EXTT3=
EXTT4=
EXTT5=
EXTT6=
EXTT7=
EXTT8=
EXTT9=
EXTT10=
EXTT11=
EXTT12=
EXTT13=
EXTT14=
EXTT15=
EXTT16=
EXTT17=
PLAYORDER=
